<?xml version="1.0" encoding="UTF-8"?>
<svg version="1.1" xmlns="http://www.w3.org/2000/svg" width="256" height="256">
<path d="M0 0 C2.52096309 2.2275585 4.98034211 4.50638231 7.42578125 6.81640625 C8.17601562 7.5021875 8.92625 8.18796875 9.69921875 8.89453125 C25.98970564 24.32762409 36.54719771 45.38249626 42.42578125 66.81640625 C42.93431641 68.57791016 42.93431641 68.57791016 43.453125 70.375 C51.37949267 103.7241875 43.69917207 138.85763396 26.42578125 167.81640625 C21.49702501 175.46447627 15.66316104 182.21338695 9.42578125 188.81640625 C8.74 189.56664062 8.05421875 190.316875 7.34765625 191.08984375 C-8.08543659 207.38033064 -29.14030876 217.93782271 -50.57421875 223.81640625 C-51.74855469 224.15542969 -52.92289063 224.49445313 -54.1328125 224.84375 C-87.482 232.77011767 -122.61544646 225.08979707 -151.57421875 207.81640625 C-159.22228877 202.88765001 -165.97119945 197.05378604 -172.57421875 190.81640625 C-173.32445312 190.130625 -174.0746875 189.44484375 -174.84765625 188.73828125 C-191.13814314 173.30518841 -201.69563521 152.25031624 -207.57421875 130.81640625 C-207.91324219 129.64207031 -208.25226563 128.46773437 -208.6015625 127.2578125 C-216.52793017 93.908625 -208.84760957 58.77517854 -191.57421875 29.81640625 C-186.64546251 22.16833623 -180.81159854 15.41942555 -174.57421875 8.81640625 C-173.8884375 8.06617188 -173.20265625 7.3159375 -172.49609375 6.54296875 C-157.06300091 -9.74751814 -136.00812874 -20.30501021 -114.57421875 -26.18359375 C-113.39988281 -26.52261719 -112.22554688 -26.86164062 -111.015625 -27.2109375 C-72.53579317 -36.35674638 -29.92130312 -25.38089294 0 0 Z " fill="#814625" transform="translate(210.57421875,29.18359375)"/>
<path d="M0 0 C3.19624773 2.41878207 5.51835651 5.16171302 7.3125 8.75 C7.96459422 14.30883595 7.52681806 18.81073382 5.25 23.9375 C3.31689609 28.408672 2.68990278 30.96760819 4.3125 35.75 C6.00588865 38.4363489 7.80094217 40.98474745 9.71875 43.515625 C13.24052507 48.45301554 12.72763076 53.93018614 12.3125 59.75 C11.25473173 65.85332293 8.26801174 69.2474178 3.640625 73.20703125 C-3.28529169 77.79719416 -9.02751026 78.18275105 -17.10351562 78.18945312 C-22.51798638 78.32240795 -25.22790704 79.45377912 -29.6875 82.75 C-33.62888108 83.65516347 -37.00641828 83.06216245 -40.6875 81.375 C-41.3475 80.83875 -42.0075 80.3025 -42.6875 79.75 C-42.6875 79.09 -42.6875 78.43 -42.6875 77.75 C-43.90566406 77.78480469 -45.12382813 77.81960937 -46.37890625 77.85546875 C-48.00259028 77.88362512 -49.62628935 77.91092329 -51.25 77.9375 C-52.04986328 77.96263672 -52.84972656 77.98777344 -53.67382812 78.01367188 C-61.57236755 78.11038868 -67.4411191 75.74710472 -73.6875 70.75 C-78.84297687 63.57502104 -79.748018 56.38143818 -78.6875 47.75 C-77.11683112 44.05693995 -75.03147062 40.98935599 -72.6875 37.75 C-70.33064915 34.38537782 -70.33064915 34.38537782 -69.75 30.5 C-70.59117723 27.8387312 -70.59117723 27.8387312 -71.65625 25.78515625 C-74.48796101 20.03071494 -75.77124675 15.17585193 -74.6875 8.75 C-73 5.375 -73 5.375 -70.6875 2.75 C-70.0275 1.96625 -69.3675 1.1825 -68.6875 0.375 C-63.83838084 -2.25160621 -59.07039401 -2.08718532 -53.6875 -1.25 C-51.3984375 -0.12109375 -51.3984375 -0.12109375 -49.3125 1.25 C-44.30539714 4.50278945 -39.74739398 4.09621982 -33.92578125 3.83984375 C-31.25265794 3.76567989 -29.30225919 3.92299488 -26.75 4.5625 C-22.7527336 4.8072306 -21.46190645 3.45873195 -18.4375 1.03515625 C-12.7226636 -3.16167673 -6.20351287 -2.88535483 0 0 Z " fill="#FEFDFD" transform="translate(120.6875,88.25)"/>
<path d="M0 0 C2.64 0 5.28 0 8 0 C8.04125 0.7425 8.0825 1.485 8.125 2.25 C9.34570665 6.08650663 11.69678933 6.81988096 15 9 C19.02566934 14.36755913 18.62906822 20.58005723 18 27 C16.83482935 32.0671375 14.39185122 35.18471075 10 38 C9.34 38 8.68 38 8 38 C8.06960984 41.7272904 8.24366201 45.3434595 9 49 C11.30305165 50.89858275 11.30305165 50.89858275 14 52 C17.8725453 57.94712314 18.59526098 63.94582192 17.1875 70.75 C16.07140314 75.41578836 15.08653417 78.27564389 11 81 C10.01 81 9.02 81 8 81 C8 82.98 8 84.96 8 87 C5.03 87 2.06 87 -1 87 C-1 85.35 -1 83.7 -1 82 C-1.7425 81.79375 -2.485 81.5875 -3.25 81.375 C-6.95647124 79.52176438 -8.03532588 77.64042557 -10 74 C-10.55149349 71.14500382 -10.56116377 68.40018188 -10.5 65.5 C-10.51546875 64.76652344 -10.5309375 64.03304687 -10.546875 63.27734375 C-10.50978573 58.09411827 -9.40626895 55.09739598 -6 51 C-3 49 -3 49 0 49 C0 45.37 0 41.74 0 38 C-1.36125 37.7215625 -1.36125 37.7215625 -2.75 37.4375 C-6.09648914 35.95732211 -7.6548546 34.74673917 -9.3046875 31.4609375 C-11.20838848 24.72311941 -11.55589477 16.81170082 -8.13671875 10.6328125 C-6 8 -6 8 -3.3125 6.4375 C-0.73391488 5.1873539 -0.73391488 5.1873539 -0.1875 2.3125 C-0.125625 1.549375 -0.06375 0.78625 0 0 Z " fill="#F9F7F5" transform="translate(196,86)"/>
<path d="M0 0 C2.31 0 4.62 0 7 0 C7.144375 1.134375 7.28875 2.26875 7.4375 3.4375 C7.61171478 6.80777201 7.61171478 6.80777201 9 8 C9.99 6.68 10.98 5.36 12 4 C13.65 4.33 15.3 4.66 17 5 C17.33 6.32 17.66 7.64 18 9 C18.66 9 19.32 9 20 9 C20.33 6.03 20.66 3.06 21 0 C23.31 0 25.62 0 28 0 C28.45647158 5.70589472 27.69917584 8.60098008 24 13 C23.0925 13.391875 22.185 13.78375 21.25 14.1875 C18.77034871 15.79449717 18.77034871 15.79449717 18.47265625 18.484375 C18.30948223 21.49314471 18.36001733 24.05341314 19 27 C21.72150183 29.48106876 21.72150183 29.48106876 25 31 C28.45906366 35.17473201 29 39.7203122 29 45 C28.42038113 50.57883158 27.26844475 55.09742194 23 59 C20.525 59.495 20.525 59.495 18 60 C18 63.96 18 67.92 18 72 C19.65 72.33 21.3 72.66 23 73 C27.45402521 77.82519398 28.12045627 80.49536126 28 87 C25.69 87 23.38 87 21 87 C20.67 84.03 20.34 81.06 20 78 C19.34 78 18.68 78 18 78 C17.67 79.32 17.34 80.64 17 82 C14.525 82.495 14.525 82.495 12 83 C11.505 80.525 11.505 80.525 11 78 C8.47740939 79.97420135 8.0070192 80.96745642 7.3125 84.1875 C7.209375 85.115625 7.10625 86.04375 7 87 C4.69 87 2.38 87 0 87 C0.56691515 81.21746543 1.85600166 77.70330225 5.4375 73.1875 C7 72 7 72 11 72 C11 68.04 11 64.08 11 60 C9.35 59.67 7.7 59.34 6 59 C0.3562605 53.04271941 0.42519134 46.69636904 0.578125 38.91796875 C1.07467035 34.30653373 2.08437955 32.19674724 5.39453125 29.06640625 C7 28 7 28 10 27 C10.33 23.37 10.66 19.74 11 16 C9.63875 15.690625 9.63875 15.690625 8.25 15.375 C4.0865696 13.61354868 3.00968351 12.01936703 1 8 C0.42168065 5.29793648 0.19106134 2.77038938 0 0 Z " fill="#F9F7F6" transform="translate(144,86)"/>
<path d="M0 0 C0.66 0 1.32 0 2 0 C2.33 1.32 2.66 2.64 3 4 C4.98 4 6.96 4 9 4 C9 2.68 9 1.36 9 0 C12 1 12 1 13 3 C13.039992 4.99960012 13.04346799 7.00047242 13 9 C12.34 9 11.68 9 11 9 C11 9.66 11 10.32 11 11 C11.66 11 12.32 11 13 11 C13.25 16.625 13.25 16.625 11 20 C10.34 20 9.68 20 9 20 C8.67 18.68 8.34 17.36 8 16 C6.35 16 4.7 16 3 16 C2.67 17.32 2.34 18.64 2 20 C1.34 20 0.68 20 0 20 C-2.45281911 16.32077133 -2.26823919 14.37740649 -2.25 10 C-2.25515625 8.7625 -2.2603125 7.525 -2.265625 6.25 C-2 3 -2 3 0 0 Z " fill="#874F30" transform="translate(153,120)"/>
<path d="M0 0 C0.66 0 1.32 0 2 0 C2.33 1.65 2.66 3.3 3 5 C5.44480079 4.81171228 5.44480079 4.81171228 8 4 C9.36020151 2.03241727 9.36020151 2.03241727 10 0 C13.14943004 3.40840174 13.43225213 5.923854 13.4375 10.5 C13.45683594 11.6240625 13.47617188 12.748125 13.49609375 13.90625 C12.90972387 17.56298187 11.83266626 18.71143003 9 21 C8.34 19.35 7.68 17.7 7 16 C5.68 16 4.36 16 3 16 C2.67 17.65 2.34 19.3 2 21 C1.34 21 0.68 21 0 21 C-2.44503999 17.33244001 -2.26831152 15.42521863 -2.25 11.0625 C-2.25515625 9.83660156 -2.2603125 8.61070312 -2.265625 7.34765625 C-2.02083557 4.26258948 -1.62728656 2.57653706 0 0 Z " fill="#895233" transform="translate(194,141)"/>
<path d="M0 0 C0.66 0 1.32 0 2 0 C2.66 1.32 3.32 2.64 4 4 C6.43717258 3.72965366 6.43717258 3.72965366 9 3 C9.66 2.01 10.32 1.02 11 0 C13.48319402 2.48319402 13.26011201 3.96666047 13.2734375 7.36132812 C13.26570312 8.04646484 13.25796875 8.73160156 13.25 9.4375 C13.25773438 10.11876953 13.26546875 10.80003906 13.2734375 11.50195312 C13.25889434 15.21409442 13.10940418 16.83589372 11 20 C10.34 20 9.68 20 9 20 C9 18.35 9 16.7 9 15 C6.05908413 15.18415432 6.05908413 15.18415432 3 16 C1.56362302 17.95163118 1.56362302 17.95163118 1 20 C-2.22624207 16.77375793 -2.15377924 13.42416342 -2.1875 9 C-2.20167969 8.154375 -2.21585938 7.30875 -2.23046875 6.4375 C-1.98543096 3.84591384 -1.30584901 2.22975008 0 0 Z " fill="#885031" transform="translate(194,98)"/>
</svg>
